<svg xmlns="http://www.w3.org/2000/svg" xmlns:xlink="http://www.w3.org/1999/xlink" viewBox="0 0 49.55 67.63"><defs><style>.cls-1{isolation:isolate;}.cls-2{fill:#efc1b2;}.cls-3{mix-blend-mode:multiply;fill:url(#radial-gradient);}.cls-4{fill:#2f2f2f;}.cls-5{fill:#d2d2d2;}</style><radialGradient id="radial-gradient" cx="24.78" cy="1256.64" r="24.78" gradientTransform="translate(0 -217.1) scale(1 0.22)" gradientUnits="userSpaceOnUse"><stop offset="0" stop-color="#cacaca"/><stop offset="1" stop-color="#fff"/></radialGradient></defs><g class="cls-1"><g id="Capa_2" data-name="Capa 2"><g id="Layer_1" data-name="Layer 1"><rect class="cls-2" x="7.98" y="23.73" width="33.2" height="34.27"/><path class="cls-3" d="M49.55,62.12c0,3-11.09,5.51-24.77,5.51S0,65.16,0,62.12s11.09-5.5,24.78-5.5S49.55,59.08,49.55,62.12Z"/><path class="cls-4" d="M11.26,22.66V13A10.13,10.13,0,0,1,21.38,2.89h3.4V0h-3.4a13,13,0,0,0-13,13v10.4a3.91,3.91,0,0,1,2.3-.75Z"/><path class="cls-4" d="M28.18,2.89A10.13,10.13,0,0,1,38.29,13v9.65h.59a3.91,3.91,0,0,1,2.3.75V13a13,13,0,0,0-13-13h-3.4V2.89Z"/><path class="cls-5" d="M24.78,32h0V22.66H10.67a4,4,0,0,0-4,4V56.15a4,4,0,0,0,4,4H24.78V47.72H21.29l.18-.82.65-2.9,1-4.31C21.83,38.28,21,37.3,21,35.77A3.77,3.77,0,0,1,24.78,32Z"/><path class="cls-5" d="M41.18,23.41a3.91,3.91,0,0,0-2.3-.75H24.78V32a3.77,3.77,0,0,1,3.77,3.77c0,1.48-.93,2.31-2.21,3.76L27.39,44l.68,2.9.19.82H24.78v12.4h14.1a4,4,0,0,0,4-4V26.63A3.94,3.94,0,0,0,41.18,23.41Z"/><path class="cls-4" d="M27.39,44l-1.05-4.47c1.28-1.45,2.21-2.28,2.21-3.76A3.77,3.77,0,0,0,24.78,32V47.72h3.48l-.19-.82Z"/><path class="cls-4" d="M24.78,32A3.77,3.77,0,0,0,21,35.77c0,1.53.82,2.51,2.08,3.92l-1,4.31-.65,2.9-.18.82h3.49V32Z"/></g></g></g></svg>