<svg xmlns="http://www.w3.org/2000/svg" xmlns:xlink="http://www.w3.org/1999/xlink" viewBox="0 0 87.33 61.79"><defs><style>.cls-1{isolation:isolate;}.cls-2{mix-blend-mode:multiply;fill:url(#radial-gradient);}.cls-3{fill:#d2d2d2;}.cls-4{fill:#fff;}.cls-5{fill:#2f2f2f;}</style><radialGradient id="radial-gradient" cx="27.7" cy="1618.7" r="24.78" gradientTransform="matrix(-1.76, 0, 0, 0.22, 92.49, -303.39)" gradientUnits="userSpaceOnUse"><stop offset="0" stop-color="#cacaca"/><stop offset="1" stop-color="#fff"/></radialGradient></defs><g class="cls-1"><g id="Capa_2" data-name="Capa 2"><g id="Layer_1" data-name="Layer 1"><path class="cls-2" d="M0,56.29c0,3,19.55,5.5,43.67,5.5s43.66-2.46,43.66-5.5-19.55-5.51-43.66-5.51S0,53.25,0,56.29Z"/><path class="cls-3" d="M50.32,31.63V3.41H71.76l8,18.64V42.38H70.88a10,10,0,0,0-17.71,0H31a10,10,0,0,0-17.71,0H7.53V31.63Z"/><rect class="cls-3" x="10.96" width="35.25" height="31.57"/><path class="cls-4" d="M61.64,22.89a2.52,2.52,0,0,1-2.52-2.52V10.3a2.52,2.52,0,0,1,2.52-2.52h3.59a4,4,0,0,1,3.45,2.34l4.11,10.43a1.59,1.59,0,0,1-1.59,2.34Z"/><path class="cls-5" d="M61.64,23.59H71.2a2.45,2.45,0,0,0,2.09-1,2.48,2.48,0,0,0,.16-2.31L69.33,9.87a4.68,4.68,0,0,0-4.1-2.79H61.64a3.22,3.22,0,0,0-3.22,3.22V20.37A3.22,3.22,0,0,0,61.64,23.59ZM65.23,8.48a3.3,3.3,0,0,1,2.8,1.9l4.11,10.43a1.06,1.06,0,0,1,0,1,1.07,1.07,0,0,1-.93.38H61.64a1.81,1.81,0,0,1-1.82-1.82V10.3a1.82,1.82,0,0,1,1.82-1.82Z"/><circle class="cls-5" cx="22.09" cy="47.01" r="8.28" transform="translate(-26.77 29.39) rotate(-45)"/><path class="cls-5" d="M22.09,55.79A8.79,8.79,0,1,0,13.31,47,8.79,8.79,0,0,0,22.09,55.79Zm0-16.57A7.79,7.79,0,1,1,14.31,47,7.79,7.79,0,0,1,22.09,39.22Z"/><path class="cls-3" d="M22.09,51.21A4.21,4.21,0,1,0,17.88,47,4.21,4.21,0,0,0,22.09,51.21Z"/><path class="cls-3" d="M22.09,51.71A4.71,4.71,0,1,0,17.38,47,4.71,4.71,0,0,0,22.09,51.71Zm0-8.41A3.71,3.71,0,1,1,18.38,47,3.71,3.71,0,0,1,22.09,43.3Z"/><path class="cls-5" d="M53.75,47A8.28,8.28,0,1,0,62,38.72,8.28,8.28,0,0,0,53.75,47Z"/><path class="cls-5" d="M62,55.79A8.79,8.79,0,1,0,53.25,47,8.79,8.79,0,0,0,62,55.79Zm0-16.57A7.79,7.79,0,1,1,54.25,47,7.79,7.79,0,0,1,62,39.22Z"/><path class="cls-3" d="M62,51.21A4.21,4.21,0,1,0,57.82,47,4.21,4.21,0,0,0,62,51.21Z"/><path class="cls-3" d="M62,51.71A4.71,4.71,0,1,0,57.32,47,4.72,4.72,0,0,0,62,51.71Zm0-8.41A3.71,3.71,0,1,1,58.32,47,3.72,3.72,0,0,1,62,43.3Z"/><rect class="cls-5" x="8.46" y="32.48" width="69.33" height="3.56"/><rect class="cls-3" x="46.21" width="2.12" height="31.57"/><rect class="cls-3" x="42.05" width="2.12" height="31.57"/><rect class="cls-3" x="37.9" width="2.12" height="31.57"/><rect class="cls-3" x="33.75" width="2.12" height="31.57"/><rect class="cls-3" x="29.59" width="2.12" height="31.57"/><rect class="cls-3" x="25.44" width="2.12" height="31.57"/><rect class="cls-3" x="21.29" width="2.12" height="31.57"/><rect class="cls-3" x="17.14" width="2.12" height="31.57"/><rect class="cls-3" x="12.99" width="2.12" height="31.57"/><rect class="cls-3" x="9.83" width="2.12" height="31.57"/></g></g></g></svg>