<svg xmlns="http://www.w3.org/2000/svg" xmlns:xlink="http://www.w3.org/1999/xlink" viewBox="0 0 62.06 65.83"><defs><style>.cls-1{isolation:isolate;}.cls-2{mix-blend-mode:multiply;fill:url(#radial-gradient);}.cls-3{fill:#20cfc1;}.cls-4{fill:#fff;}.cls-5{fill:#232323;}.cls-6{fill:#2f2f2f;}.cls-7{fill:#d2d2d2;}</style><radialGradient id="radial-gradient" cx="28.85" cy="877.39" r="22.5" gradientTransform="translate(-7.95 -134.12) scale(1.35 0.22)" gradientUnits="userSpaceOnUse"><stop offset="0" stop-color="#cacaca"/><stop offset="1" stop-color="#fff"/></radialGradient></defs><g class="cls-1"><g id="Capa_2" data-name="Capa 2"><g id="Layer_1" data-name="Layer 1"><ellipse class="cls-2" cx="31.03" cy="60.83" rx="30.39" ry="5"/><path class="cls-3" d="M55.65,24.75a4.81,4.81,0,0,1-2.89,6.14L14.15,44.72A4.81,4.81,0,0,1,8,41.82L.28,20.25a4.82,4.82,0,0,1,2.9-6.14L41.79.28a4.82,4.82,0,0,1,6.14,2.9Z"/><path class="cls-4" d="M24.71,13.41,45.37,6Z"/><rect class="cls-5" x="24.07" y="9.01" width="21.94" height="1.4" transform="translate(-1.22 12.39) rotate(-19.72)"/><path class="cls-4" d="M26.43,18.2l20.65-7.41Z"/><rect class="cls-5" x="25.78" y="13.8" width="21.94" height="1.4" transform="translate(-2.74 13.26) rotate(-19.73)"/><path class="cls-6" d="M55.65,24.75a4.81,4.81,0,0,1-2.89,6.14L14.15,44.72A4.81,4.81,0,0,1,8,41.82L.28,20.25a4.82,4.82,0,0,1,2.9-6.14L41.79.28a4.82,4.82,0,0,1,6.14,2.9Z"/><path class="cls-7" d="M24.71,13.41,45.37,6Z"/><rect class="cls-7" x="24.07" y="9.01" width="21.94" height="1.4" transform="translate(-1.22 12.39) rotate(-19.72)"/><path class="cls-7" d="M26.43,18.2l20.65-7.41Z"/><rect class="cls-7" x="25.78" y="13.8" width="21.94" height="1.4" transform="translate(-2.74 13.26) rotate(-19.73)"/><rect class="cls-7" x="11.45" y="14.25" width="50.61" height="32.51" rx="4.8"/><rect class="cls-6" x="36.75" y="35.97" width="21.94" height="5.71"/><path class="cls-6" d="M36.75,20.85h0Z"/><path class="cls-6" d="M58.7,21.55h-22a.7.7,0,1,1,0-1.4h22a.7.7,0,1,1,0,1.4Z"/><path class="cls-6" d="M36.75,25.94h0Z"/><path class="cls-6" d="M58.7,26.64h-22a.71.71,0,0,1,0-1.41h22a.71.71,0,0,1,0,1.41Z"/><path class="cls-6" d="M14.67,30.51h0Z"/><path class="cls-6" d="M58.7,31.21h-44a.7.7,0,0,1,0-1.4h44a.7.7,0,1,1,0,1.4Z"/></g></g></g></svg>