<svg xmlns="http://www.w3.org/2000/svg" xmlns:xlink="http://www.w3.org/1999/xlink" viewBox="0 0 68.85 66.56"><defs><style>.cls-1{isolation:isolate;}.cls-2{mix-blend-mode:multiply;fill:url(#radial-gradient);}.cls-3{fill:#2f2f2f;}.cls-4{fill:#d2d2d2;}</style><radialGradient id="radial-gradient" cx="35.88" cy="503.17" r="22.5" gradientTransform="translate(-15.29 -50.24) scale(1.39 0.22)" gradientUnits="userSpaceOnUse"><stop offset="0" stop-color="#cacaca"/><stop offset="1" stop-color="#fff"/></radialGradient></defs><g class="cls-1"><g id="Capa_2" data-name="Capa 2"><g id="Layer_1" data-name="Layer 1"><path class="cls-2" d="M65.6,61.56c0,2.76-14,5-31.17,5s-31.18-2.24-31.18-5,14-5,31.18-5S65.6,58.8,65.6,61.56Z"/><path class="cls-3" d="M59.54,27.17H57.11V23.69A20.71,20.71,0,0,0,36.48,2.94H32.37A20.72,20.72,0,0,0,11.74,23.69v3.48H9.32V23.69A23.14,23.14,0,0,1,32.37.5h4.11A23.15,23.15,0,0,1,59.54,23.69Z"/><path class="cls-3" d="M60,27.67H56.61v-4A20.21,20.21,0,0,0,36.48,3.44H32.37A20.21,20.21,0,0,0,12.24,23.69v4H8.82v-4A23.64,23.64,0,0,1,32.37,0h4.11A23.65,23.65,0,0,1,60,23.69Zm-2.43-1H59v-3A22.65,22.65,0,0,0,36.48,1H32.37A22.64,22.64,0,0,0,9.82,23.69v3h1.42v-3A21.21,21.21,0,0,1,32.37,2.44h4.11A21.21,21.21,0,0,1,57.61,23.69Z"/><path class="cls-3" d="M49.13,58.07H42.34v-1.4h6.79a7.46,7.46,0,0,0,6.27-4.19l.2-.47c1-2.54,1.72-4.22,1.86-4.61l0-.06h1.38v.16c0,.15,0,.3-2,5l-.2.47A8.86,8.86,0,0,1,49.13,58.07Z"/><path class="cls-4" d="M65.63,28.09a7.19,7.19,0,0,0-4.7-2.4,5.59,5.59,0,0,0-2.9,0V51.54a5.59,5.59,0,0,0,2.9,0,7.19,7.19,0,0,0,4.7-2.4c1.77-2.22,3.22-7,3.22-10.52S67.4,30.31,65.63,28.09Z"/><path class="cls-3" d="M54.48,30.75V46.47A5,5,0,0,0,58,51.54V25.68A5,5,0,0,0,54.48,30.75Z"/><path class="cls-4" d="M7.92,25.69a7.22,7.22,0,0,0-4.71,2.4C1.45,30.31,0,35,0,38.61s1.45,8.3,3.21,10.52a7.22,7.22,0,0,0,4.71,2.4,5.59,5.59,0,0,0,2.9,0V25.68A5.59,5.59,0,0,0,7.92,25.69Z"/><path class="cls-3" d="M10.82,25.68V51.54a5,5,0,0,0,3.55-5.07V30.75A5,5,0,0,0,10.82,25.68Z"/><path class="cls-4" d="M43.55,57.37c0,2.38-3.12,4.3-7,4.3s-5.07-1.92-5.07-4.3,1.22-4.3,5.07-4.3S43.55,55,43.55,57.37Z"/><path class="cls-4" d="M44.76,57.47s0,.13,0,.37a6,6,0,0,1-.15.68,5.15,5.15,0,0,1-.35.77A6.47,6.47,0,0,1,40.67,62a10.36,10.36,0,0,1-2.69.56,12.49,12.49,0,0,1-1.53,0c-.47-.06-.91-.07-1.44-.18a5.27,5.27,0,0,1-3.07-1.65,4.88,4.88,0,0,1-1-3.35l.08-.82c0-.27.14-.58.21-.87a4.37,4.37,0,0,1,.9-1.51A4.86,4.86,0,0,1,35,52.82a10.53,10.53,0,0,1,2.87,0,9.5,9.5,0,0,1,2.47.69A5.51,5.51,0,0,1,43.23,56a3,3,0,0,1,.32,1.39Zm-.85-.07s-.31-.59-.77-1.37a5.35,5.35,0,0,0-2.91-2.12,10.11,10.11,0,0,0-5.07-.33,4,4,0,0,0-2.31,1.25A3.17,3.17,0,0,0,32.27,56a5.86,5.86,0,0,0-.11.65l0,.73A3.54,3.54,0,0,0,33,59.76a3.74,3.74,0,0,0,2.17,1,12.43,12.43,0,0,0,1.39.07c.31,0,.81-.06,1.19-.12A8.41,8.41,0,0,0,39.93,60c2.41-.57,3.6-3.32,3.6-3.32Z"/><path class="cls-4" d="M46.59,23c-4.89-4.43-20.27-4-24.69.87a12,12,0,0,0,.87,16.94,12.13,12.13,0,0,0,5.44,2.61l2.75,7,1.5-6.53c4.32,0,12.63-1.31,15-4A12,12,0,0,0,46.59,23Z"/><path class="cls-3" d="M31.09,52.06l-3.25-8.27a12.44,12.44,0,0,1-5.41-2.66,12.56,12.56,0,0,1-.9-17.64c2.73-3,8.79-4.12,13.55-4.12,5.2,0,9.63,1.2,11.85,3.21a12.57,12.57,0,0,1,.9,17.65c-2.54,2.82-10.8,4-15,4.11Zm4-31.69c-5.71,0-10.74,1.48-12.81,3.79a11.55,11.55,0,0,0,.83,16.23,11.72,11.72,0,0,0,5.23,2.49l.25.06,2.26,5.74,1.22-5.34h.4c4.72,0,12.52-1.44,14.62-3.78a11.55,11.55,0,0,0-.82-16.23C44.24,21.5,40,20.37,35.08,20.37Z"/><path class="cls-3" d="M43.13,28.86H26.66a.7.7,0,0,1,0-1.4H43.13a.7.7,0,0,1,0,1.4Z"/><path class="cls-3" d="M43.13,32.67H26.66a.7.7,0,0,1,0-1.4H43.13a.7.7,0,0,1,0,1.4Z"/><path class="cls-3" d="M43.13,36.48H26.66a.7.7,0,1,1,0-1.4H43.13a.7.7,0,1,1,0,1.4Z"/></g></g></g></svg>